<svg width="39" height="39" viewBox="0 0 39 39" fill="none" xmlns="http://www.w3.org/2000/svg">
<path d="M27.0727 12.6555C25.712 12.0292 24.2528 11.5677 22.7272 11.3034C22.6994 11.2983 22.6717 11.311 22.6574 11.3365C22.4697 11.6714 22.2618 12.1082 22.1163 12.4516C20.4754 12.2051 18.8429 12.2051 17.2356 12.4516C17.09 12.1006 16.8746 11.6714 16.6861 11.3365C16.6718 11.3119 16.644 11.2991 16.6162 11.3034C15.0915 11.5668 13.6323 12.0283 12.2708 12.6555C12.259 12.6606 12.2489 12.6692 12.2422 12.6802C9.47447 16.8286 8.71628 20.875 9.08822 24.8712C9.08991 24.8907 9.10085 24.9094 9.11599 24.9213C10.942 26.2667 12.7109 27.0835 14.4469 27.6249C14.4747 27.6334 14.5041 27.6232 14.5218 27.6002C14.9324 27.0376 15.2985 26.4444 15.6123 25.8205C15.6309 25.784 15.6132 25.7406 15.5753 25.7262C14.9947 25.5052 14.4418 25.2358 13.91 24.9298C13.8679 24.9052 13.8646 24.8448 13.9033 24.8159C14.0152 24.7318 14.1271 24.6442 14.234 24.5559C14.2533 24.5397 14.2803 24.5363 14.303 24.5465C17.7969 26.1469 21.5794 26.1469 25.032 24.5465C25.0548 24.5355 25.0817 24.5389 25.1019 24.555C25.2088 24.6434 25.3207 24.7318 25.4335 24.8159C25.4722 24.8448 25.4696 24.9052 25.4276 24.9298C24.8957 25.2417 24.3429 25.5052 23.7614 25.7253C23.7235 25.7398 23.7067 25.784 23.7252 25.8205C24.0458 26.4435 24.4119 27.0367 24.8149 27.5994C24.8318 27.6232 24.8621 27.6334 24.8898 27.6249C26.6343 27.0835 28.4031 26.2667 30.2291 24.9213C30.2451 24.9094 30.2552 24.8916 30.2569 24.872C30.7021 20.252 29.5113 16.2387 27.1004 12.681C27.0946 12.6692 27.0845 12.6606 27.0727 12.6555ZM16.1341 22.4379C15.0822 22.4379 14.2155 21.469 14.2155 20.2792C14.2155 19.0893 15.0654 18.1204 16.1341 18.1204C17.2112 18.1204 18.0695 19.0978 18.0527 20.2792C18.0527 21.469 17.2028 22.4379 16.1341 22.4379ZM23.2279 22.4379C22.176 22.4379 21.3093 21.469 21.3093 20.2792C21.3093 19.0893 22.1592 18.1204 23.2279 18.1204C24.305 18.1204 25.1633 19.0978 25.1465 20.2792C25.1465 21.469 24.305 22.4379 23.2279 22.4379Z" fill="white"/>
</svg>
