<svg width="39" height="39" viewBox="0 0 39 39" fill="none" xmlns="http://www.w3.org/2000/svg">
<path d="M13.0187 15.8437C13.0187 15.625 12.9125 15.4062 12.8062 15.2969L11.2125 13.3281V13H16.1L19.925 21.6406L23.325 13H28V13.3281L26.6188 14.6406C26.5125 14.75 26.4062 14.8594 26.5125 15.0781V24.9219C26.5125 25.0313 26.5125 25.25 26.6188 25.3594L27.8937 26.6719V27H21.2V26.6719L22.5812 25.25C22.6875 25.1406 22.6875 25.0312 22.6875 24.8125V16.8281L18.8625 26.7813H18.4375L13.975 16.8281V23.5C13.975 23.8281 14.0813 24.0469 14.1875 24.2656L15.9937 26.4531V26.7813H11V26.4531L12.8062 24.2656C13.0187 24.0469 13.125 23.8281 13.0187 23.5V15.8437Z" fill="white"/>
</svg>
