<svg width="22" height="19" viewBox="0 0 22 19" fill="none" xmlns="http://www.w3.org/2000/svg">
<path d="M22 2.10891C21.175 2.52429 20.35 2.66275 19.3875 2.80121C20.35 2.24737 21.0375 1.4166 21.3125 0.308905C20.4875 0.862751 19.525 1.13967 18.425 1.4166C17.6 0.585829 16.3625 0.0319824 15.125 0.0319824C12.2375 0.0319824 10.0375 2.80121 10.725 5.57044C7.0125 5.43198 3.7125 3.63198 1.375 0.862752C0.1375 2.93968 0.825 5.57044 2.75 6.95506C2.0625 6.95506 1.375 6.67814 0.6875 6.40121C0.6875 8.47814 2.2 10.4166 4.2625 10.9704C3.575 11.1089 2.8875 11.2474 2.2 11.1089C2.75 12.9089 4.4 14.2935 6.4625 14.2935C4.8125 15.5397 2.3375 16.232 0 15.9551C2.0625 17.2012 4.4 18.032 6.875 18.032C15.2625 18.032 19.9375 10.9704 19.6625 4.46275C20.625 3.90891 21.45 3.07814 22 2.10891Z" fill="#636363"/>
</svg>
