<svg width="39" height="39" viewBox="0 0 39 39" fill="none" xmlns="http://www.w3.org/2000/svg">
<path d="M30.093 12.8837C29.3395 13.2605 28.586 13.386 27.707 13.5116C28.586 13.0093 29.214 12.2558 29.4651 11.2512C28.7116 11.7535 27.8326 12.0047 26.8279 12.2558C26.0744 11.5023 24.9442 11 23.814 11C21.1767 11 19.1674 13.5116 19.7953 16.0233C16.4047 15.8977 13.3907 14.2651 11.2558 11.7535C10.1256 13.6372 10.7535 16.0233 12.5116 17.2791C11.8837 17.2791 11.2558 17.0279 10.6279 16.7767C10.6279 18.6605 12.0093 20.4186 13.893 20.9209C13.2651 21.0465 12.6372 21.1721 12.0093 21.0465C12.5116 22.6791 14.0186 23.9349 15.9023 23.9349C14.3953 25.0651 12.1349 25.693 10 25.4419C11.8837 26.5721 14.0186 27.3256 16.2791 27.3256C23.9395 27.3256 28.2093 20.9209 27.9581 15.0186C28.8372 14.5163 29.5907 13.7628 30.093 12.8837Z" fill="white"/>
</svg>
