<svg width="18" height="17" viewBox="0 0 18 17" fill="none" xmlns="http://www.w3.org/2000/svg">
<path d="M14.6212 0.312012H3.50047C2.1046 0.312012 0.973022 1.44359 0.973022 2.83946V13.9602C0.973022 15.3561 2.1046 16.4877 3.50047 16.4877H14.6212C16.0171 16.4877 17.1487 15.3561 17.1487 13.9602V2.83946C17.1487 1.44359 16.0171 0.312012 14.6212 0.312012Z" fill="#636363"/>
<path d="M6.83673 12.4438H5.11806V7.03505H6.83673V12.4438ZM5.9774 6.27682C5.42136 6.27682 5.01697 5.87243 5.01697 5.31639C5.01697 4.76035 5.47191 4.35596 5.9774 4.35596C6.53344 4.35596 6.93783 4.76035 6.93783 5.31639C6.93783 5.87243 6.53344 6.27682 5.9774 6.27682ZM13.1048 12.4438H11.3861V9.51195C11.3861 8.65262 11.0323 8.39988 10.5268 8.39988C10.0213 8.39988 9.51582 8.80427 9.51582 9.5625V12.4438H7.79716V7.03505H9.41473V7.79329C9.56637 7.43945 10.173 6.88341 11.0323 6.88341C11.9927 6.88341 13.0037 7.43944 13.0037 9.10756V12.4438H13.1048Z" fill="white"/>
</svg>
